<svg width="32" height="32" viewBox="0 0 32 32" fill="none" xmlns="http://www.w3.org/2000/svg">
  <defs>
    <linearGradient id="faviconGradient" x1="0%" y1="0%" x2="100%" y2="100%">
      <stop offset="0%" style="stop-color:#6366f1;stop-opacity:1" />
      <stop offset="50%" style="stop-color:#8b5cf6;stop-opacity:1" />
      <stop offset="100%" style="stop-color:#a855f7;stop-opacity:1" />
    </linearGradient>
    
    <linearGradient id="textGradient" x1="0%" y1="0%" x2="100%" y2="100%">
      <stop offset="0%" style="stop-color:#ffffff;stop-opacity:1" />
      <stop offset="100%" style="stop-color:#e0e7ff;stop-opacity:1" />
    </linearGradient>
  </defs>
  
  <!-- Círculo de fondo -->
  <circle cx="16" cy="16" r="15" fill="url(#faviconGradient)" stroke="url(#textGradient)" stroke-width="1"/>
  
  <!-- Letra J -->
  <path 
    d="M8 6 L8 22 Q8 26 12 26 L14 26 Q18 26 18 22 L18 18 Q18 15 16 15 L16 22 Q16 24 14 24 L12 24 Q10 24 10 22 L10 6 Z" 
    fill="url(#textGradient)"
  />
  
  <!-- Letra G -->
  <path 
    d="M20 6 L20 22 Q20 26 16 26 L14 26 Q10 26 10 22 L10 6 L12 6 L12 22 Q12 24 14 24 L16 24 Q18 24 18 22 L18 6 Z" 
    fill="url(#textGradient)"
  />
  
  <!-- Punto entre las letras -->
  <circle 
    cx="14" 
    cy="12" 
    r="1" 
    fill="url(#textGradient)"
  />
</svg>

